<svg width="19" height="12" viewBox="0 0 19 12" fill="none" xmlns="http://www.w3.org/2000/svg">
<path fill-rule="evenodd" clip-rule="evenodd" d="M18.2506 6C18.2506 5.83424 18.1847 5.67526 18.0675 5.55805C17.9503 5.44084 17.7913 5.375 17.6256 5.375H2.88432L6.81807 1.4425C6.87618 1.38439 6.92227 1.3154 6.95372 1.23948C6.98517 1.16355 7.00136 1.08218 7.00136 0.999996C7.00136 0.917816 6.98517 0.836441 6.95372 0.760517C6.92227 0.684592 6.87618 0.615606 6.81807 0.557496C6.75996 0.499386 6.69097 0.453291 6.61505 0.421842C6.53912 0.390393 6.45775 0.374207 6.37557 0.374207C6.29339 0.374207 6.21201 0.390393 6.13609 0.421842C6.06016 0.453291 5.99118 0.499386 5.93307 0.557496L0.933068 5.5575C0.874864 5.61555 0.828685 5.68452 0.797177 5.76045C0.765669 5.83639 0.749451 5.91779 0.749451 6C0.749451 6.0822 0.765669 6.16361 0.797177 6.23954C0.828685 6.31547 0.874864 6.38444 0.933068 6.4425L5.93307 11.4425C5.99118 11.5006 6.06016 11.5467 6.13609 11.5781C6.21201 11.6096 6.29339 11.6258 6.37557 11.6258C6.45775 11.6258 6.53912 11.6096 6.61505 11.5781C6.69097 11.5467 6.75996 11.5006 6.81807 11.4425C6.87618 11.3844 6.92227 11.3154 6.95372 11.2395C6.98517 11.1636 7.00136 11.0822 7.00136 11C7.00136 10.9178 6.98517 10.8364 6.95372 10.7605C6.92227 10.6846 6.87618 10.6156 6.81807 10.5575L2.88432 6.625H17.6256C17.7913 6.625 17.9503 6.55915 18.0675 6.44194C18.1847 6.32473 18.2506 6.16576 18.2506 6Z" fill="black"/>
</svg>
