<svg width="20" height="20" viewBox="0 0 20 20" fill="none" xmlns="http://www.w3.org/2000/svg">
<path fill-rule="evenodd" clip-rule="evenodd" d="M13.9167 19.6005H6.0735C2.6847 19.6005 0.399902 17.4203 0.399902 14.1669V5.84368C0.399902 2.58928 2.6847 0.400482 6.0735 0.400482H13.9167C17.3151 0.400482 19.5999 2.58928 19.5999 5.84368V14.1669C19.5999 17.4203 17.3151 19.6005 13.9167 19.6005ZM12.1791 9.28048H6.0831C5.6799 9.28048 5.3631 9.60688 5.3631 10.0005C5.3631 10.4037 5.6799 10.7205 6.0831 10.7205H12.1791L9.7983 13.0917C9.6639 13.2261 9.5871 13.4181 9.5871 13.6005C9.5871 13.7819 9.6639 13.9653 9.7983 14.1093C10.0767 14.3877 10.5375 14.3877 10.8159 14.1093L14.4351 10.5093C14.7039 10.2405 14.7039 9.76048 14.4351 9.49168L10.8159 5.89168C10.5375 5.61328 10.0767 5.61328 9.7983 5.89168C9.5199 6.17968 9.5199 6.63088 9.7983 6.91888L12.1791 9.28048Z" fill="white"/>
</svg>
