<svg width="10" height="12" viewBox="0 0 10 12" fill="none" xmlns="http://www.w3.org/2000/svg">
<path d="M9.19999 7.02579C9.14874 7.0784 8.95524 7.30333 8.77499 7.48835C7.71825 8.652 4.96154 10.5567 3.51868 11.138C3.29956 11.2314 2.74556 11.4292 2.44957 11.4419C2.16595 11.4419 1.89558 11.3766 1.63758 11.2441C1.31596 11.0591 1.05796 10.768 0.916588 10.4242C0.825581 10.1857 0.684211 9.47191 0.684211 9.45921C0.542841 8.67831 0.465088 7.40945 0.465088 6.00726C0.465088 4.67128 0.542841 3.45412 0.658588 2.66142C0.671841 2.64872 0.813211 1.7617 0.967835 1.45786C1.25146 0.902794 1.80545 0.558143 2.39832 0.558143H2.44957C2.83569 0.571748 3.64768 0.916399 3.64768 0.929097C5.01278 1.51138 7.70588 3.32261 8.78825 4.52617C8.78825 4.52617 9.09307 4.83545 9.22561 5.02863C9.43236 5.30617 9.53486 5.64991 9.53486 5.99365C9.53486 6.37731 9.41911 6.73465 9.19999 7.02579Z" fill="#008AA7"/>
</svg>
