<svg width="32" height="50" viewBox="0 0 32 50" fill="none" xmlns="http://www.w3.org/2000/svg">
<g clip-path="url(#clip0_1_416)">
<path d="M3.625 3.125C1.89648 3.125 0.5 4.52148 0.5 6.25V43.75C0.5 45.4785 1.89648 46.875 3.625 46.875H19.25C26.1543 46.875 31.75 41.2793 31.75 34.375C31.75 29.834 29.3281 25.8496 25.6953 23.6621C27.5215 21.4844 28.625 18.6816 28.625 15.625C28.625 8.7207 23.0293 3.125 16.125 3.125H3.625ZM16.125 21.875H6.75V9.375H16.125C19.5723 9.375 22.375 12.1777 22.375 15.625C22.375 19.0723 19.5723 21.875 16.125 21.875ZM6.75 28.125H19.25C22.6973 28.125 25.5 30.9277 25.5 34.375C25.5 37.8223 22.6973 40.625 19.25 40.625H6.75V28.125Z" fill="white"/>
</g>
<defs>
<clipPath id="clip0_1_416">
<rect width="31.25" height="50" fill="white" transform="translate(0.5)"/>
</clipPath>
</defs>
</svg>
