<svg width="24" height="24" viewBox="0 0 24 24" fill="none" xmlns="http://www.w3.org/2000/svg">
<path fill-rule="evenodd" clip-rule="evenodd" d="M4.8383 2.40048H8.0831C9.4367 2.40048 10.5215 3.50448 10.5215 4.85904V8.13168C10.5215 9.49488 9.4367 10.5893 8.0831 10.5893H4.8383C3.4943 10.5893 2.3999 9.49488 2.3999 8.13168V4.85904C2.3999 3.50448 3.4943 2.40048 4.8383 2.40048ZM4.8383 13.4114H8.0831C9.4367 13.4114 10.5215 14.5068 10.5215 15.87V19.1426C10.5215 20.4962 9.4367 21.6002 8.0831 21.6002H4.8383C3.4943 21.6002 2.3999 20.4962 2.3999 19.1426V15.87C2.3999 14.5068 3.4943 13.4114 4.8383 13.4114ZM19.1616 2.40048H15.9168C14.5632 2.40048 13.4784 3.50448 13.4784 4.85904V8.13168C13.4784 9.49488 14.5632 10.5893 15.9168 10.5893H19.1616C20.5056 10.5893 21.6 9.49488 21.6 8.13168V4.85904C21.6 3.50448 20.5056 2.40048 19.1616 2.40048ZM15.9168 13.4114H19.1616C20.5056 13.4114 21.6 14.5068 21.6 15.87V19.1426C21.6 20.4962 20.5056 21.6002 19.1616 21.6002H15.9168C14.5632 21.6002 13.4784 20.4962 13.4784 19.1426V15.87C13.4784 14.5068 14.5632 13.4114 15.9168 13.4114Z" fill="white"/>
</svg>
