<svg width="25" height="19" viewBox="0 0 25 19" fill="none" xmlns="http://www.w3.org/2000/svg">
<path d="M21.115 1.64453C21.5128 1.64453 21.8943 1.80257 22.1756 2.08387C22.457 2.36518 22.615 2.74671 22.615 3.14453V15.1445C22.615 15.5424 22.457 15.9239 22.1756 16.2052C21.8943 16.4865 21.5128 16.6445 21.115 16.6445H3.11499C2.71717 16.6445 2.33563 16.4865 2.05433 16.2052C1.77303 15.9239 1.61499 15.5424 1.61499 15.1445V3.14453C1.61499 2.74671 1.77303 2.36518 2.05433 2.08387C2.33563 1.80257 2.71717 1.64453 3.11499 1.64453H21.115ZM3.11499 0.144531C2.31934 0.144531 1.55628 0.460602 0.99367 1.02321C0.431061 1.58582 0.11499 2.34888 0.11499 3.14453L0.11499 15.1445C0.11499 15.9402 0.431061 16.7032 0.99367 17.2659C1.55628 17.8285 2.31934 18.1445 3.11499 18.1445H21.115C21.9106 18.1445 22.6737 17.8285 23.2363 17.2659C23.7989 16.7032 24.115 15.9402 24.115 15.1445V3.14453C24.115 2.34888 23.7989 1.58582 23.2363 1.02321C22.6737 0.460602 21.9106 0.144531 21.115 0.144531H3.11499Z" fill="#111111"/>
<path d="M3.11499 5.39453C3.11499 5.19562 3.19401 5.00485 3.33466 4.8642C3.47531 4.72355 3.66608 4.64453 3.86499 4.64453H6.86499C7.0639 4.64453 7.25467 4.72355 7.39532 4.8642C7.53597 5.00485 7.61499 5.19562 7.61499 5.39453V6.89453C7.61499 7.09344 7.53597 7.28421 7.39532 7.42486C7.25467 7.56551 7.0639 7.64453 6.86499 7.64453H3.86499C3.66608 7.64453 3.47531 7.56551 3.33466 7.42486C3.19401 7.28421 3.11499 7.09344 3.11499 6.89453V5.39453ZM3.11499 9.89453C3.11499 9.69562 3.19401 9.50485 3.33466 9.3642C3.47531 9.22355 3.66608 9.14453 3.86499 9.14453H11.365C11.5639 9.14453 11.7547 9.22355 11.8953 9.3642C12.036 9.50485 12.115 9.69562 12.115 9.89453C12.115 10.0934 12.036 10.2842 11.8953 10.4249C11.7547 10.5655 11.5639 10.6445 11.365 10.6445H3.86499C3.66608 10.6445 3.47531 10.5655 3.33466 10.4249C3.19401 10.2842 3.11499 10.0934 3.11499 9.89453ZM3.11499 12.8945C3.11499 12.6956 3.19401 12.5049 3.33466 12.3642C3.47531 12.2235 3.66608 12.1445 3.86499 12.1445H5.36499C5.5639 12.1445 5.75467 12.2235 5.89532 12.3642C6.03597 12.5049 6.11499 12.6956 6.11499 12.8945C6.11499 13.0934 6.03597 13.2842 5.89532 13.4249C5.75467 13.5655 5.5639 13.6445 5.36499 13.6445H3.86499C3.66608 13.6445 3.47531 13.5655 3.33466 13.4249C3.19401 13.2842 3.11499 13.0934 3.11499 12.8945ZM7.61499 12.8945C7.61499 12.6956 7.69401 12.5049 7.83466 12.3642C7.97531 12.2235 8.16608 12.1445 8.36499 12.1445H9.86499C10.0639 12.1445 10.2547 12.2235 10.3953 12.3642C10.536 12.5049 10.615 12.6956 10.615 12.8945C10.615 13.0934 10.536 13.2842 10.3953 13.4249C10.2547 13.5655 10.0639 13.6445 9.86499 13.6445H8.36499C8.16608 13.6445 7.97531 13.5655 7.83466 13.4249C7.69401 13.2842 7.61499 13.0934 7.61499 12.8945ZM12.115 12.8945C12.115 12.6956 12.194 12.5049 12.3347 12.3642C12.4753 12.2235 12.6661 12.1445 12.865 12.1445H14.365C14.5639 12.1445 14.7547 12.2235 14.8953 12.3642C15.036 12.5049 15.115 12.6956 15.115 12.8945C15.115 13.0934 15.036 13.2842 14.8953 13.4249C14.7547 13.5655 14.5639 13.6445 14.365 13.6445H12.865C12.6661 13.6445 12.4753 13.5655 12.3347 13.4249C12.194 13.2842 12.115 13.0934 12.115 12.8945ZM16.615 12.8945C16.615 12.6956 16.694 12.5049 16.8347 12.3642C16.9753 12.2235 17.1661 12.1445 17.365 12.1445H18.865C19.0639 12.1445 19.2547 12.2235 19.3953 12.3642C19.536 12.5049 19.615 12.6956 19.615 12.8945C19.615 13.0934 19.536 13.2842 19.3953 13.4249C19.2547 13.5655 19.0639 13.6445 18.865 13.6445H17.365C17.1661 13.6445 16.9753 13.5655 16.8347 13.4249C16.694 13.2842 16.615 13.0934 16.615 12.8945Z" fill="#111111"/>
</svg>
