<svg width="18" height="14" viewBox="0 0 18 14" fill="none" xmlns="http://www.w3.org/2000/svg">
<path fill-rule="evenodd" clip-rule="evenodd" d="M8.99971 5.03442C7.89137 5.03442 6.99054 5.93609 6.99054 7.04442C6.99054 8.15192 7.89137 9.05276 8.99971 9.05276C10.108 9.05276 11.0097 8.15192 11.0097 7.04442C11.0097 5.93609 10.108 5.03442 8.99971 5.03442ZM8.99971 10.3028C7.20221 10.3028 5.74054 8.84109 5.74054 7.04442C5.74054 5.24692 7.20221 3.78442 8.99971 3.78442C10.7972 3.78442 12.2597 5.24692 12.2597 7.04442C12.2597 8.84109 10.7972 10.3028 8.99971 10.3028Z" fill="#008AA7"/>
<mask id="mask0_220_76" style="mask-type:alpha" maskUnits="userSpaceOnUse" x="0" y="0" width="18" height="14">
<path fill-rule="evenodd" clip-rule="evenodd" d="M0.666809 0.333496H17.3334V13.7543H0.666809V0.333496Z" fill="white"/>
</mask>
<g mask="url(#mask0_220_76)">
<path fill-rule="evenodd" clip-rule="evenodd" d="M1.97493 7.04375C3.52493 10.4679 6.13577 12.5037 8.99993 12.5046C11.8641 12.5037 14.4749 10.4679 16.0249 7.04375C14.4749 3.62041 11.8641 1.58458 8.99993 1.58375C6.1366 1.58458 3.52493 3.62041 1.97493 7.04375ZM9.0016 13.7546H8.99827H8.99743C5.55077 13.7521 2.45577 11.3363 0.717434 7.29042C0.649934 7.13292 0.649934 6.95459 0.717434 6.79709C2.45577 2.75209 5.5516 0.336255 8.99743 0.333755C8.9991 0.332922 8.9991 0.332922 8.99993 0.333755C9.0016 0.332922 9.0016 0.332922 9.00243 0.333755C12.4491 0.336255 15.5441 2.75209 17.2824 6.79709C17.3508 6.95459 17.3508 7.13292 17.2824 7.29042C15.5449 11.3363 12.4491 13.7521 9.00243 13.7546H9.0016Z" fill="#008AA7"/>
</g>
</svg>
