<svg width="25" height="25" viewBox="0 0 25 25" fill="none" xmlns="http://www.w3.org/2000/svg">
<path d="M12.7323 12.126L12.5 12.3552L12.2667 12.126C11.8331 11.698 11.2483 11.458 10.639 11.458C10.0298 11.458 9.44502 11.698 9.01144 12.126C8.79626 12.3331 8.62507 12.5814 8.50814 12.8561C8.3912 13.1309 8.33093 13.4264 8.33093 13.725C8.33093 14.0236 8.3912 14.3191 8.50814 14.5939C8.62507 14.8686 8.79626 15.1169 9.01144 15.324L12.5 18.75L15.9885 15.324C16.2037 15.1169 16.3749 14.8686 16.4918 14.5939C16.6088 14.3191 16.669 14.0236 16.669 13.725C16.669 13.4264 16.6088 13.1309 16.4918 12.8561C16.3749 12.5814 16.2037 12.3331 15.9885 12.126C15.5548 11.6979 14.9698 11.4579 14.3604 11.4579C13.751 11.4579 13.166 11.6979 12.7323 12.126Z" fill="black"/>
<path d="M22.6114 11.7635L13.2364 2.38855C13.1397 2.29173 13.0249 2.21492 12.8986 2.16251C12.7722 2.1101 12.6367 2.08313 12.4999 2.08313C12.3631 2.08313 12.2277 2.1101 12.1013 2.16251C11.9749 2.21492 11.8601 2.29173 11.7635 2.38855L2.38848 11.7635C2.24285 11.9092 2.14367 12.0948 2.1035 12.2968C2.06333 12.4989 2.08395 12.7083 2.16278 12.8986C2.2416 13.0889 2.37508 13.2516 2.54634 13.366C2.7176 13.4805 2.91895 13.5416 3.12494 13.5417H4.16661V20.8333C4.16661 21.9823 5.10098 22.9167 6.24994 22.9167H18.7499C19.8989 22.9167 20.8333 21.9823 20.8333 20.8333V13.5417H21.8749C22.0809 13.5416 22.2823 13.4805 22.4535 13.366C22.6248 13.2516 22.7583 13.0889 22.8371 12.8986C22.9159 12.7083 22.9366 12.4989 22.8964 12.2968C22.8562 12.0948 22.757 11.9092 22.6114 11.7635ZM18.751 20.8333H6.24994V10.849L12.4999 4.59896L18.7499 10.849V15.625L18.751 20.8333Z" fill="black"/>
</svg>
