<svg width="25" height="25" viewBox="0 0 25 25" fill="none" xmlns="http://www.w3.org/2000/svg">
<path d="M10.1198 12.5C11.3188 12.5 12.2032 11.6156 12.2032 10.4167C12.2032 9.21772 11.3188 8.33334 10.1198 8.33334C8.92087 8.33334 8.0365 9.21772 8.0365 10.4167C8.0365 11.6156 8.91983 12.5 10.1198 12.5Z" fill="black"/>
<path d="M20.8334 4.16666H4.16671C3.01775 4.16666 2.08337 5.0427 2.08337 6.11978V18.8802C2.08337 19.9573 3.01775 20.8333 4.16671 20.8333H20.8334C21.9823 20.8333 22.9167 19.9573 22.9167 18.8802V6.11978C22.9167 5.0427 21.9823 4.16666 20.8334 4.16666ZM20.8334 18.75L4.16671 18.7385V6.24999L20.8334 6.26145V18.75Z" fill="black"/>
<path d="M14.5833 9.375H18.75V11.4583H14.5833V9.375ZM15.625 13.5417H18.75V15.625H15.625V13.5417ZM13.9896 16.1833C13.9896 14.7521 12.2438 13.2813 10.1198 13.2813C7.99583 13.2813 6.25 14.7521 6.25 16.1833V16.6667H13.9896V16.1833Z" fill="black"/>
</svg>
