<svg width="20" height="20" viewBox="0 0 20 20" fill="none" xmlns="http://www.w3.org/2000/svg">
<path fill-rule="evenodd" clip-rule="evenodd" d="M19.6 9.89111L19.6 14.7288C19.6 17.1477 17.68 19.1205 15.3376 19.1205L4.66243 19.1205C2.31044 19.1205 0.400035 17.1477 0.400035 14.709L0.400035 9.88119C0.400036 7.46233 2.31044 5.47965 4.65284 5.47966L9.26084 5.47966L9.26084 11.6259L7.72484 10.0398C7.43684 9.74241 6.96644 9.74241 6.67844 10.0398C6.53444 10.1885 6.46724 10.3868 6.46724 10.585C6.46724 10.7734 6.53444 10.9717 6.67844 11.1204L9.47204 14.0151C9.60644 14.1638 9.79844 14.2431 10 14.2431C10.192 14.2431 10.384 14.1638 10.5184 14.0151L13.312 11.1204C13.6 10.823 13.6 10.3372 13.312 10.0398C13.024 9.74241 12.5536 9.74241 12.2656 10.0398L10.7392 11.6259L10.7392 5.47966L15.328 5.47966C17.68 5.47966 19.6 7.46233 19.6 9.89111ZM10.0001 0.880462C10.4033 0.880462 10.7393 1.22148 10.7393 1.63071L10.7393 5.47936L9.26093 5.47936L9.26093 1.63071C9.26093 1.22148 9.58733 0.880462 10.0001 0.880462Z" fill="white"/>
</svg>
