<svg width="20" height="12" viewBox="0 0 20 12" fill="none" xmlns="http://www.w3.org/2000/svg">
<g clip-path="url(#clip0_1_603)">
<path d="M7.14917 1.27344H12.3615V10.6391H7.14917V1.27344Z" fill="#FF5F00"/>
<path d="M7.47946 5.95696C7.47946 4.05407 8.37298 2.36623 9.74634 1.2741C8.73705 0.479849 7.46295 0 6.073 0C2.78001 0 0.115967 2.66405 0.115967 5.95696C0.115967 9.2498 2.78001 11.9139 6.07293 11.9139C7.46288 11.9139 8.73697 11.4341 9.74634 10.6398C8.37298 9.5642 7.47946 7.85985 7.47946 5.95696Z" fill="#EB001B"/>
<path d="M19.3937 5.95696C19.3937 9.2498 16.7297 11.9139 13.4368 11.9139C12.0468 11.9139 10.7727 11.4341 9.76334 10.6398C11.1533 9.54769 12.0303 7.85985 12.0303 5.95696C12.0303 4.05407 11.1367 2.36623 9.76334 1.2741C10.7726 0.479849 12.0468 0 13.4368 0C16.7297 0 19.3938 2.68063 19.3938 5.95696H19.3937Z" fill="#F79E1B"/>
</g>
<defs>
<clipPath id="clip0_1_603">
<rect width="19.2" height="12" fill="white" transform="translate(0.11499)"/>
</clipPath>
</defs>
</svg>
