<svg width="25" height="24" viewBox="0 0 25 24" fill="none" xmlns="http://www.w3.org/2000/svg">
<path d="M3.11499 20.586L6.70099 17H18.115C18.6454 17 19.1541 16.7893 19.5292 16.4142C19.9043 16.0391 20.115 15.5304 20.115 15V6C20.115 5.46957 19.9043 4.96086 19.5292 4.58579C19.1541 4.21071 18.6454 4 18.115 4H5.11499C4.58456 4 4.07585 4.21071 3.70078 4.58579C3.3257 4.96086 3.11499 5.46957 3.11499 6V20.586ZM3.11499 22H2.11499V6C2.11499 5.20435 2.43106 4.44129 2.99367 3.87868C3.55628 3.31607 4.31934 3 5.11499 3H18.115C18.9106 3 19.6737 3.31607 20.2363 3.87868C20.7989 4.44129 21.115 5.20435 21.115 6V15C21.115 15.7956 20.7989 16.5587 20.2363 17.1213C19.6737 17.6839 18.9106 18 18.115 18H7.11499L3.11499 22ZM6.11499 7H17.115V8H6.11499V7ZM6.11499 10H17.115V11H6.11499V10ZM6.11499 13H14.115V14H6.11499V13Z" fill="black"/>
</svg>
