<svg width="17" height="16" viewBox="0 0 17 16" fill="none" xmlns="http://www.w3.org/2000/svg">
<path d="M9.22727 0.727273C9.22727 0.534388 9.15065 0.349404 9.01426 0.213013C8.87787 0.0766233 8.69289 0 8.5 0C8.30712 0 8.12213 0.0766233 7.98574 0.213013C7.84935 0.349404 7.77273 0.534388 7.77273 0.727273V7.27273H1.22727C1.03439 7.27273 0.849404 7.34935 0.713013 7.48574C0.576623 7.62213 0.5 7.80712 0.5 8C0.5 8.19289 0.576623 8.37787 0.713013 8.51426C0.849404 8.65065 1.03439 8.72727 1.22727 8.72727H7.77273V15.2727C7.77273 15.4656 7.84935 15.6506 7.98574 15.787C8.12213 15.9234 8.30712 16 8.5 16C8.69289 16 8.87787 15.9234 9.01426 15.787C9.15065 15.6506 9.22727 15.4656 9.22727 15.2727V8.72727H15.7727C15.9656 8.72727 16.1506 8.65065 16.287 8.51426C16.4234 8.37787 16.5 8.19289 16.5 8C16.5 7.80712 16.4234 7.62213 16.287 7.48574C16.1506 7.34935 15.9656 7.27273 15.7727 7.27273H9.22727V0.727273Z" fill="#111111"/>
</svg>
