<svg width="10" height="12" viewBox="0 0 10 12" fill="none" xmlns="http://www.w3.org/2000/svg">
<path d="M2.18805 12H1.06309C1 11.9989 0.938217 11.9818 0.88346 11.9505C0.828703 11.9191 0.782745 11.8745 0.749841 11.8206C0.716937 11.7668 0.698153 11.7055 0.695227 11.6425C0.692301 11.5794 0.705328 11.5167 0.733103 11.46L2.94928 7.12517H0.493111C0.425533 7.12574 0.359058 7.10803 0.300716 7.07392C0.242374 7.03981 0.194335 6.99057 0.161678 6.9314C0.129021 6.87223 0.112961 6.80534 0.115195 6.7378C0.11743 6.67025 0.137876 6.60457 0.174372 6.54769L4.17923 0.172913C4.21206 0.121672 4.25687 0.0791923 4.30979 0.0491399C4.36271 0.0190875 4.42215 0.00236607 4.48297 0.000419078H9.51905C9.59392 -0.00312339 9.66814 0.0158569 9.73213 0.0549104C9.79611 0.0939638 9.84692 0.151298 9.878 0.219512C9.90908 0.287727 9.91901 0.36369 9.90649 0.437599C9.89397 0.511508 9.85959 0.579969 9.80779 0.634147L6.4104 4.50026H8.42783C8.49926 4.50177 8.56877 4.52364 8.62818 4.56332C8.68759 4.60299 8.73444 4.65882 8.76319 4.72421C8.79195 4.78961 8.80143 4.86186 8.79052 4.93247C8.7796 5.00307 8.74874 5.06908 8.70157 5.12274L2.46554 11.8725C2.43082 11.912 2.38817 11.9438 2.34036 11.9658C2.29256 11.9877 2.24066 11.9994 2.18805 12ZM1.68557 11.25H2.02681L7.56536 5.25024H5.58918C5.51431 5.25378 5.44008 5.2348 5.3761 5.19574C5.31212 5.15669 5.2613 5.09936 5.23023 5.03114C5.19914 4.96293 5.18922 4.88696 5.20174 4.81306C5.21426 4.73915 5.24864 4.67069 5.30044 4.61651L8.69782 0.750393H4.68921L1.15684 6.3752H3.568C3.63109 6.37633 3.69288 6.39336 3.74763 6.42472C3.80239 6.45608 3.84835 6.50074 3.88125 6.55459C3.91416 6.60843 3.93294 6.6697 3.93587 6.73274C3.93879 6.79577 3.92577 6.85852 3.89799 6.91518L1.68557 11.25Z" fill="black"/>
</svg>
