<svg width="21" height="20" viewBox="0 0 21 20" fill="none" xmlns="http://www.w3.org/2000/svg">
<path d="M10.2505 16.8C6.49055 16.8 3.45055 13.76 3.45055 10C3.45055 6.24001 6.49055 3.20001 10.2505 3.20001C14.0105 3.20001 17.0505 6.24001 17.0505 10C17.0505 13.76 14.0105 16.8 10.2505 16.8ZM10.2505 4.00001C6.93055 4.00001 4.25055 6.68001 4.25055 10C4.25055 13.32 6.93055 16 10.2505 16C13.5705 16 16.2505 13.32 16.2505 10C16.2505 6.68001 13.5705 4.00001 10.2505 4.00001Z" fill="black"/>
<path d="M8.17054 7.84C8.29054 7.52 8.41054 7.28 8.65054 7.08C8.85054 6.88 9.09054 6.72 9.41054 6.6C9.73054 6.48 10.0505 6.44 10.4105 6.44C10.6905 6.44 10.9705 6.48 11.2105 6.56C11.4505 6.64 11.6905 6.76 11.8905 6.92C12.0905 7.08 12.2505 7.28 12.3305 7.52C12.4505 7.76 12.4905 8.04 12.4905 8.32C12.4905 8.72 12.4105 9.04 12.2505 9.32C12.0905 9.6 11.8505 9.84 11.6105 10.12L11.0905 10.64C10.9705 10.76 10.8505 10.88 10.8105 11C10.7305 11.12 10.6905 11.28 10.6905 11.44C10.6505 11.6 10.6505 11.72 10.6505 12.04H10.0105C10.0105 11.72 10.0105 11.6 10.0505 11.36C10.0905 11.16 10.1705 10.96 10.2505 10.76C10.3305 10.6 10.4505 10.44 10.6105 10.28C10.7705 10.12 10.9705 9.96 11.1705 9.72C11.3705 9.52 11.5305 9.32 11.6505 9.12C11.7705 8.92 11.8505 8.64 11.8505 8.4C11.8505 8.2 11.8105 8 11.7305 7.84C11.6505 7.68 11.5305 7.52 11.4105 7.4C11.2905 7.28 11.1305 7.2 10.9305 7.12C10.7305 7.04 10.5705 7 10.3705 7C10.0905 7 9.85054 7.04 9.65054 7.16C9.45054 7.24 9.25054 7.4 9.13054 7.56C9.01054 7.72 8.89054 7.92 8.81054 8.16C8.73054 8.4 8.65054 8.52 8.65054 8.8H8.01054C8.01054 8.44 8.05054 8.16 8.17054 7.84ZM10.6505 12.8V13.6H9.85054V12.8H10.6505Z" fill="black"/>
</svg>
