<svg width="25" height="25" viewBox="0 0 25 25" fill="none" xmlns="http://www.w3.org/2000/svg">
<path d="M18.75 11.4583C18.75 10.4594 18.0417 9.62396 17.1032 9.42292C17.4782 8.79687 17.7084 8.07292 17.7084 7.29167C17.7084 4.99375 15.8396 3.125 13.5417 3.125C11.9615 3.125 10.6032 4.01771 9.89587 5.31667C9.18858 4.01771 7.83025 3.125 6.25004 3.125C3.95212 3.125 2.08337 4.99375 2.08337 7.29167C2.08337 8.23125 2.40837 9.09062 2.93442 9.7875C2.67149 9.97977 2.45746 10.2312 2.30962 10.5214C2.16179 10.8117 2.08428 11.1326 2.08337 11.4583V19.7917C2.08337 20.9406 3.01775 21.875 4.16671 21.875H16.6667C17.8157 21.875 18.75 20.9406 18.75 19.7917V17.0437L22.9167 19.1271V11.8354L18.75 13.9187V11.4583ZM13.5417 5.20833C14.6907 5.20833 15.625 6.14271 15.625 7.29167C15.625 8.44062 14.6907 9.375 13.5417 9.375C12.3927 9.375 11.4584 8.44062 11.4584 7.29167C11.4584 6.14271 12.3927 5.20833 13.5417 5.20833ZM6.25004 5.20833C7.399 5.20833 8.33337 6.14271 8.33337 7.29167C8.33337 8.44062 7.399 9.375 6.25004 9.375C5.10108 9.375 4.16671 8.44062 4.16671 7.29167C4.16671 6.14271 5.10108 5.20833 6.25004 5.20833ZM4.16671 19.7917V11.4583H16.6667L16.6688 19.7917H4.16671Z" fill="black"/>
</svg>
