<svg width="25" height="24" viewBox="0 0 25 24" fill="none" xmlns="http://www.w3.org/2000/svg">
<g clip-path="url(#clip0_1_631)">
<path d="M23.3806 0.486736C23.311 0.31335 23.1772 0.17348 23.0071 0.0962222C22.837 0.0189648 22.6437 0.0102689 22.4673 0.0719436C22.2909 0.133618 22.1451 0.260915 22.0602 0.427351C21.9753 0.593788 21.9578 0.78655 22.0114 0.965536C23.1262 4.16954 20.9134 6.56234 19.2262 7.84394L18.5446 6.86714C18.3154 6.53954 17.803 6.26714 17.4046 6.26234L13.579 6.27914C13.1117 6.29325 12.6569 6.43339 12.2626 6.68474L0.989848 14.5891C0.727641 14.7737 0.549231 15.0545 0.493678 15.3703C0.438126 15.6861 0.509958 16.011 0.693448 16.2739L5.81625 23.6035C6.20025 24.1495 6.81345 24.0835 7.36065 23.7019L18.6334 15.7963C18.9574 15.5671 19.3318 15.0727 19.4638 14.6947L20.6614 10.9207C20.7934 10.5439 20.713 9.96914 20.4838 9.64154L20.0686 9.04634C22.3342 7.30994 24.6862 4.24154 23.3806 0.486736ZM18.1354 11.7163C17.9278 11.8617 17.6935 11.9647 17.446 12.0195C17.1985 12.0743 16.9426 12.0798 16.693 12.0357C16.4434 11.9915 16.2049 11.8987 15.9912 11.7623C15.7775 11.626 15.5927 11.4489 15.4474 11.2411C15.1534 10.8207 15.0381 10.3008 15.127 9.79549C15.2158 9.29019 15.5016 8.84079 15.9214 8.54594C16.2506 8.31532 16.6436 8.19331 17.0455 8.19696C17.4474 8.20062 17.8381 8.32976 18.163 8.56634C17.8366 8.76314 17.6122 8.87834 17.5702 8.89634C17.4215 8.96726 17.3012 9.08661 17.2292 9.23483C17.1572 9.38304 17.1376 9.55133 17.1737 9.71212C17.2098 9.87291 17.2995 10.0167 17.428 10.1198C17.5565 10.223 17.7163 10.2794 17.881 10.2799C17.9842 10.2799 18.0898 10.2559 18.1894 10.2091C18.4222 10.0987 18.6718 9.96794 18.9322 9.81314C18.9921 10.1732 18.9491 10.5429 18.8082 10.8796C18.6672 11.2163 18.434 11.5063 18.1354 11.7163Z" fill="white"/>
</g>
<defs>
<clipPath id="clip0_1_631">
<rect width="24" height="24" fill="white" transform="translate(0.11499)"/>
</clipPath>
</defs>
</svg>
