<svg width="14" height="14" viewBox="0 0 14 14" fill="none" xmlns="http://www.w3.org/2000/svg">
<path d="M5.80001 2.2H8.20001C8.20001 1.88174 8.07358 1.57651 7.84853 1.35147C7.62349 1.12643 7.31827 0.999997 7.00001 0.999997C6.68175 0.999997 6.37652 1.12643 6.15148 1.35147C5.92643 1.57651 5.80001 1.88174 5.80001 2.2ZM5.00001 2.2C5.00001 1.66956 5.21072 1.16086 5.58579 0.785783C5.96087 0.410711 6.46957 0.199997 7.00001 0.199997C7.53044 0.199997 8.03915 0.410711 8.41422 0.785783C8.78929 1.16086 9.00001 1.66956 9.00001 2.2H13C13.1061 2.2 13.2078 2.24214 13.2828 2.31715C13.3579 2.39217 13.4 2.49391 13.4 2.6C13.4 2.70608 13.3579 2.80783 13.2828 2.88284C13.2078 2.95785 13.1061 3 13 3H12.1568L11.2016 11.2752C11.1341 11.8601 10.8539 12.3999 10.4143 12.7917C9.97472 13.1834 9.40644 13.4 8.81761 13.4H5.18241C4.59357 13.4 4.0253 13.1834 3.58572 12.7917C3.14613 12.3999 2.86593 11.8601 2.79841 11.2752L1.84321 3H1.00001C0.893919 3 0.792178 2.95785 0.717163 2.88284C0.642149 2.80783 0.600006 2.70608 0.600006 2.6C0.600006 2.49391 0.642149 2.39217 0.717163 2.31715C0.792178 2.24214 0.893919 2.2 1.00001 2.2H5.00001ZM3.59281 11.184C3.63795 11.5739 3.82484 11.9336 4.11794 12.1947C4.41104 12.4558 4.78988 12.6 5.18241 12.6H8.81761C9.21013 12.6 9.58897 12.4558 9.88207 12.1947C10.1752 11.9336 10.3621 11.5739 10.4072 11.184L11.3512 3H2.64881L3.59281 11.184ZM5.80001 5C5.90609 5 6.00783 5.04214 6.08285 5.11715C6.15786 5.19217 6.20001 5.29391 6.20001 5.4V10.2C6.20001 10.3061 6.15786 10.4078 6.08285 10.4828C6.00783 10.5579 5.90609 10.6 5.80001 10.6C5.69392 10.6 5.59218 10.5579 5.51716 10.4828C5.44215 10.4078 5.40001 10.3061 5.40001 10.2V5.4C5.40001 5.29391 5.44215 5.19217 5.51716 5.11715C5.59218 5.04214 5.69392 5 5.80001 5ZM8.60001 5.4C8.60001 5.29391 8.55786 5.19217 8.48285 5.11715C8.40783 5.04214 8.30609 5 8.20001 5C8.09392 5 7.99218 5.04214 7.91716 5.11715C7.84215 5.19217 7.80001 5.29391 7.80001 5.4V10.2C7.80001 10.3061 7.84215 10.4078 7.91716 10.4828C7.99218 10.5579 8.09392 10.6 8.20001 10.6C8.30609 10.6 8.40783 10.5579 8.48285 10.4828C8.55786 10.4078 8.60001 10.3061 8.60001 10.2V5.4Z" fill="#008AA7"/>
</svg>
