<svg width="20" height="20" viewBox="0 0 20 20" fill="none" xmlns="http://www.w3.org/2000/svg">
<path d="M10.52 0.278265C10.4629 0.192667 10.3856 0.122482 10.2949 0.07394C10.2042 0.025398 10.1029 0 9.99998 0C9.8971 0 9.7958 0.025398 9.70509 0.07394C9.61438 0.122482 9.53706 0.192667 9.47998 0.278265L5.72998 5.90326C5.66735 5.99738 5.63142 6.10673 5.62602 6.21965C5.62061 6.33257 5.64594 6.44485 5.6993 6.54452C5.75266 6.64418 5.83206 6.72751 5.92903 6.78562C6.02601 6.84373 6.13693 6.87446 6.24998 6.87451H6.37248L3.84498 10.9183C3.78585 11.0129 3.75312 11.1216 3.75019 11.2331C3.74726 11.3446 3.77424 11.4549 3.82833 11.5525C3.88241 11.6501 3.96163 11.7314 4.05775 11.788C4.15388 11.8447 4.26341 11.8745 4.37498 11.8745H4.61373L2.56623 15.9695C2.51848 16.0648 2.49589 16.1707 2.50061 16.2772C2.50533 16.3837 2.5372 16.4872 2.59319 16.5779C2.64918 16.6685 2.72744 16.7434 2.82051 16.7953C2.91359 16.8473 3.0184 16.8745 3.12498 16.8745H8.74998V19.9995H11.25V16.8745H16.875C16.9816 16.8745 17.0864 16.8473 17.1794 16.7953C17.2725 16.7434 17.3508 16.6685 17.4068 16.5779C17.4628 16.4872 17.4946 16.3837 17.4993 16.2772C17.5041 16.1707 17.4815 16.0648 17.4337 15.9695L15.3875 11.8745H15.6262C15.7378 11.8745 15.8473 11.8447 15.9435 11.788C16.0396 11.7314 16.1188 11.6501 16.1729 11.5525C16.227 11.4549 16.2539 11.3446 16.251 11.2331C16.2481 11.1216 16.2154 11.0129 16.1562 10.9183L13.6275 6.87451H13.75C13.863 6.87446 13.974 6.84373 14.0709 6.78562C14.1679 6.72751 14.2473 6.64418 14.3007 6.54452C14.354 6.44485 14.3793 6.33257 14.3739 6.21965C14.3685 6.10673 14.3326 5.99738 14.27 5.90326L10.52 0.278265V0.278265Z" fill="#008AA7"/>
</svg>
