<svg width="24" height="24" viewBox="0 0 24 24" fill="none" xmlns="http://www.w3.org/2000/svg">
<g clip-path="url(#clip0_1_520)">
<path d="M11.9998 23.9999C18.6272 23.9999 23.9998 18.6273 23.9998 11.9999C23.9998 5.37249 18.6272 -9.15527e-05 11.9998 -9.15527e-05C5.3724 -9.15527e-05 -0.000183105 5.37249 -0.000183105 11.9999C-0.000183105 18.6273 5.3724 23.9999 11.9998 23.9999Z" fill="white"/>
<path d="M11.4783 12H24C24 10.9169 23.8556 9.86768 23.5866 8.86957H11.4783V12Z" fill="#D80027"/>
<path d="M11.4783 5.73916H22.2387C21.5042 4.54047 20.5649 3.48095 19.4698 2.6087H11.4783V5.73916Z" fill="#D80027"/>
<path d="M12 24C14.8241 24 17.4199 23.0239 19.4698 21.3914H4.53015C6.57999 23.0239 9.17579 24 12 24Z" fill="#D80027"/>
<path d="M1.76128 18.2609H22.2387C22.8285 17.2986 23.2858 16.2467 23.5866 15.1304H0.413391C0.714188 16.2467 1.17155 17.2986 1.76128 18.2609Z" fill="#D80027"/>
<path d="M5.55844 1.87388H6.65199L5.6348 2.61286L6.02335 3.8086L5.00621 3.06961L3.98907 3.8086L4.32469 2.77561C3.4291 3.52163 2.64413 4.39566 1.99725 5.36953H2.34765L1.70016 5.83992C1.59929 6.00821 1.50254 6.17916 1.40982 6.35264L1.719 7.30425L1.14216 6.88514C0.99877 7.18894 0.867614 7.49958 0.749723 7.81669L1.09036 8.86519H2.34765L1.33046 9.60417L1.719 10.7999L0.701864 10.0609L0.0925825 10.5036C0.0315981 10.9938 -0.000183105 11.4931 -0.000183105 11.9999H11.9998C11.9998 5.37253 11.9998 4.59122 11.9998 -9.15527e-05C9.62925 -9.15527e-05 7.41943 0.687565 5.55844 1.87388ZM6.02335 10.7999L5.00621 10.0609L3.98907 10.7999L4.37761 9.60417L3.36043 8.86519H4.61771L5.00621 7.66946L5.39471 8.86519H6.65199L5.6348 9.60417L6.02335 10.7999ZM5.6348 6.10852L6.02335 7.30425L5.00621 6.56527L3.98907 7.30425L4.37761 6.10852L3.36043 5.36953H4.61771L5.00621 4.1738L5.39471 5.36953H6.65199L5.6348 6.10852ZM10.3277 10.7999L9.31055 10.0609L8.29341 10.7999L8.68196 9.60417L7.66477 8.86519H8.92205L9.31055 7.66946L9.69905 8.86519H10.9563L9.93915 9.60417L10.3277 10.7999ZM9.93915 6.10852L10.3277 7.30425L9.31055 6.56527L8.29341 7.30425L8.68196 6.10852L7.66477 5.36953H8.92205L9.31055 4.1738L9.69905 5.36953H10.9563L9.93915 6.10852ZM9.93915 2.61286L10.3277 3.8086L9.31055 3.06961L8.29341 3.8086L8.68196 2.61286L7.66477 1.87388H8.92205L9.31055 0.678143L9.69905 1.87388H10.9563L9.93915 2.61286Z" fill="#0052B4"/>
</g>
<defs>
<clipPath id="clip0_1_520">
<rect width="24" height="24" fill="white"/>
</clipPath>
</defs>
</svg>
