<svg width="24" height="24" viewBox="0 0 24 24" fill="none" xmlns="http://www.w3.org/2000/svg">
<path d="M21.2939 7.68389V10.6306H14.0311C13.2814 10.6306 12.6616 11.2503 12.6616 12V15.0467C12.6616 15.7964 13.2814 16.4161 14.0311 16.4161H21.2939V19.3628C21.2939 19.7383 21.0077 20.0244 20.6322 20.0244H3.36774C2.99222 20.0244 2.70607 19.7383 2.70607 19.3628V6.81086C2.98347 6.94478 3.29402 7.02222 3.62163 7.02222H3.62172C7.52281 7.01876 11.7301 7.02002 15.5709 7.02117C17.3602 7.02171 19.07 7.02222 20.6322 7.02222C21.0077 7.02222 21.2939 7.30837 21.2939 7.68389ZM14.0309 11.8461H14.0311H21.2939V15.2006H14.0311C13.9803 15.2006 13.9431 15.1832 13.9188 15.1589C13.8945 15.1347 13.8772 15.0975 13.8772 15.0467V12C13.8772 11.9492 13.8945 11.9119 13.9188 11.8876C13.9431 11.8633 13.9802 11.846 14.0309 11.8461ZM3.62163 2.76C2.44995 2.76 1.49052 3.71943 1.49052 4.89111V19.3628C1.49052 20.3938 2.33671 21.24 3.36774 21.24H20.6322C21.6632 21.24 22.5094 20.3938 22.5094 19.3628V7.68389C22.5094 6.65286 21.6632 5.80667 20.6322 5.80667H19.4627V3.36778C19.4627 3.04668 19.1761 2.76003 18.855 2.76H3.62163ZM3.62163 3.97556H18.2472V5.80667H3.62163C3.10545 5.80667 2.70607 5.40729 2.70607 4.89111C2.70607 4.37494 3.10545 3.97556 3.62163 3.97556ZM16.57 12.4078C15.9539 12.4078 15.4544 12.9072 15.4544 13.5233C15.4544 14.1395 15.9539 14.6389 16.57 14.6389C17.1861 14.6389 17.6855 14.1395 17.6855 13.5233C17.6855 12.9072 17.1861 12.4078 16.57 12.4078Z" fill="black" stroke="black" stroke-width="0.2"/>
</svg>
